<svg xmlns="http://www.w3.org/2000/svg" viewBox="0 0 760 386" role="img" aria-label="The Pocket Humans shelf">
<title>The Pocket Humans shelf</title>
<text x="0" y="14" font-size="12" fill="currentColor">Pocket Humans — one founding volume per heteronym · New Human Press</text>
<text x="0" y="29" font-size="10" fill="currentColor" opacity=".7">18 volumes · 11 deposited · 1 scattered · 2 to be collected · 4 forthcoming</text>
<text x="0" y="44" font-size="11" fill="currentColor">Johannes Sigil</text><rect x="148" y="31" width="88" height="15" fill="currentColor" opacity="0.45" stroke="currentColor" stroke-dasharray="4 3" stroke-width=".8"/><circle cx="229" cy="38.5" r="2.6" fill="currentColor" opacity="1"/><text x="0" y="70" font-size="11" fill="currentColor">Jack Feist</text><rect x="148" y="57" width="88" height="15" fill="currentColor" opacity="0.85" stroke="currentColor" stroke-width=".8"/><circle cx="229" cy="64.5" r="2.6" fill="currentColor" opacity="1"/><rect x="242" y="57" width="88" height="15" fill="currentColor" opacity="0.85" stroke="currentColor" stroke-width=".8"/><circle cx="323" cy="64.5" r="2.6" fill="currentColor" opacity="1"/><rect x="336" y="57" width="88" height="15" fill="currentColor" opacity="0.85" stroke="currentColor" stroke-width=".8"/><circle cx="417" cy="64.5" r="2.6" fill="currentColor" opacity="1"/><rect x="430" y="57" width="88" height="15" fill="currentColor" opacity="0.14" stroke="currentColor" stroke-dasharray="1 4" stroke-width=".8"/><text x="0" y="96" font-size="11" fill="currentColor">Damascus Dancings</text><rect x="148" y="83" width="88" height="15" fill="currentColor" opacity="0.85" stroke="currentColor" stroke-width=".8"/><rect x="242" y="83" width="88" height="15" fill="currentColor" opacity="0.85" stroke="currentColor" stroke-width=".8"/><circle cx="323" cy="90.5" r="2.6" fill="currentColor" opacity="1"/><text x="0" y="122" font-size="11" fill="currentColor">Rex Fraction</text><rect x="148" y="109" width="88" height="15" fill="currentColor" opacity="0.85" stroke="currentColor" stroke-width=".8"/><text x="0" y="148" font-size="11" fill="currentColor">Rev. Ayanna Vox</text><rect x="148" y="135" width="88" height="15" fill="currentColor" opacity="0.85" stroke="currentColor" stroke-width=".8"/><circle cx="229" cy="142.5" r="2.6" fill="currentColor" opacity="1"/><text x="0" y="174" font-size="11" fill="currentColor">Talos Morrow</text><rect x="148" y="161" width="88" height="15" fill="currentColor" opacity="0.85" stroke="currentColor" stroke-width=".8"/><text x="0" y="200" font-size="11" fill="currentColor">Ichabod Spellings</text><rect x="148" y="187" width="88" height="15" fill="currentColor" opacity="0.85" stroke="currentColor" stroke-width=".8"/><text x="0" y="226" font-size="11" fill="currentColor">Nobel Glas</text><rect x="148" y="213" width="88" height="15" fill="currentColor" opacity="0.85" stroke="currentColor" stroke-width=".8"/><rect x="242" y="213" width="88" height="15" fill="currentColor" opacity="0.14" stroke="currentColor" stroke-dasharray="1 4" stroke-width=".8"/><text x="0" y="252" font-size="11" fill="currentColor">Rebekah Cranes</text><rect x="148" y="239" width="88" height="15" fill="currentColor" opacity="0.85" stroke="currentColor" stroke-width=".8"/><rect x="242" y="239" width="88" height="15" fill="currentColor" opacity="0.14" stroke="currentColor" stroke-dasharray="1 4" stroke-width=".8"/><text x="0" y="278" font-size="11" fill="currentColor">Sen Kuro</text><rect x="148" y="265" width="88" height="15" fill="currentColor" opacity="0.28" stroke="currentColor" stroke-dasharray="2 3" stroke-width=".8"/><text x="0" y="304" font-size="11" fill="currentColor">Dr. Orin Trace</text><rect x="148" y="291" width="88" height="15" fill="currentColor" opacity="0.28" stroke="currentColor" stroke-dasharray="2 3" stroke-width=".8"/><text x="0" y="330" font-size="11" fill="currentColor">Sparrow Wells</text><rect x="148" y="317" width="88" height="15" fill="currentColor" opacity="0.14" stroke="currentColor" stroke-dasharray="1 4" stroke-width=".8"/>
<g transform="translate(0,374)" font-size="10" fill="currentColor"><rect x="0" y="-8" width="16" height="11" fill="currentColor" opacity=".85"/><text x="21" y="1" opacity=".8">deposited</text><rect x="92" y="-8" width="16" height="11" fill="currentColor" opacity=".45" stroke="currentColor" stroke-dasharray="4 3" stroke-width=".8"/><text x="113" y="1" opacity=".8">scattered</text><rect x="184" y="-8" width="16" height="11" fill="currentColor" opacity=".28" stroke="currentColor" stroke-dasharray="2 3" stroke-width=".8"/><text x="205" y="1" opacity=".8">to be collected</text><rect x="310" y="-8" width="16" height="11" fill="currentColor" opacity=".14" stroke="currentColor" stroke-dasharray="1 4" stroke-width=".8"/><text x="331" y="1" opacity=".8">forthcoming</text><circle cx="428" cy="-3" r="2.6" fill="currentColor"/><text x="436" y="1" opacity=".8">apparatus present</text></g>
</svg>